<svg xmlns="http://www.w3.org/2000/svg" xmlns:xlink="http://www.w3.org/1999/xlink" width="297" zoomAndPan="magnify" viewBox="0 0 222.75 80.249996" height="107" preserveAspectRatio="xMidYMid meet" version="1.0"><defs><g/><clipPath id="ed594affac"><path d="M 0.90625 0 L 221.59375 0 L 221.59375 79.507812 L 0.90625 79.507812 Z M 0.90625 0 " clip-rule="nonzero"/></clipPath><clipPath id="706d773fb2"><path d="M 108 8.058594 L 125.6875 8.058594 L 125.6875 23 L 108 23 Z M 108 8.058594 " clip-rule="nonzero"/></clipPath><clipPath id="649dc41e7a"><path d="M 82.589844 10 L 111 10 L 111 51.15625 L 82.589844 51.15625 Z M 82.589844 10 " clip-rule="nonzero"/></clipPath></defs><g clip-path="url(#ed594affac)"><path fill="#ffffff" d="M 0.90625 0 L 221.59375 0 L 221.59375 79.507812 L 0.90625 79.507812 Z M 0.90625 0 " fill-opacity="1" fill-rule="nonzero"/></g><g clip-path="url(#706d773fb2)"><path fill="#100f0d" d="M 125.363281 20.960938 C 125.015625 21.296875 122.820312 20.621094 120.265625 19.269531 C 120.09375 19.09375 119.925781 19.09375 119.753906 18.933594 L 111.277344 22.148438 L 110.601562 21.988281 L 116.875 17.402344 C 115.183594 16.214844 113.140625 15.039062 111.953125 14.171875 L 109.058594 15.875 L 108.894531 15.714844 L 111.277344 13.496094 C 111.101562 13.335938 111.101562 13.335938 111.101562 13.171875 C 111.101562 13.171875 111.277344 13.171875 111.453125 13.171875 L 111.953125 10.117188 L 112.113281 10.117188 L 112.464844 13.496094 C 113.65625 14.011719 115.859375 14.863281 117.886719 15.875 L 118.0625 8.074219 L 118.738281 8.414062 L 120.605469 17.226562 C 120.78125 17.402344 121.117188 17.578125 121.28125 17.578125 C 123.660156 18.933594 125.691406 20.445312 125.363281 20.960938 " fill-opacity="1" fill-rule="evenodd"/><path fill="#100f0d" d="M 121.28125 17.578125 C 121.117188 17.578125 120.78125 17.402344 120.605469 17.226562 L 118.738281 8.414062 L 118.0625 8.074219 L 117.886719 15.875 C 115.859375 14.863281 113.65625 14.011719 112.464844 13.496094 L 112.113281 10.117188 L 111.953125 10.117188 L 111.453125 13.171875 C 111.277344 13.171875 111.101562 13.171875 111.101562 13.171875 C 111.101562 13.335938 111.101562 13.335938 111.277344 13.496094 L 108.894531 15.714844 L 109.058594 15.875 L 111.953125 14.171875 C 113.140625 15.039062 115.183594 16.214844 116.875 17.402344 L 110.601562 21.988281 L 111.277344 22.148438 L 119.753906 18.933594 C 119.925781 19.09375 120.09375 19.09375 120.265625 19.269531 C 122.820312 20.621094 125.015625 21.296875 125.363281 20.960938 C 125.691406 20.445312 123.660156 18.933594 121.28125 17.578125 " fill-opacity="1" fill-rule="nonzero"/></g><g clip-path="url(#649dc41e7a)"><path fill="#100f0d" d="M 110.390625 11.65625 L 108.882812 13.964844 C 107.726562 13.714844 106.296875 13.496094 105.503906 13.496094 C 94.132812 13.496094 85.140625 22.664062 85.140625 33.832031 C 85.140625 41.132812 89.386719 47.230469 94.644531 51.136719 C 87.519531 51.136719 82.585938 40.117188 82.585938 33.832031 C 82.585938 21.296875 92.78125 10.953125 105.503906 10.953125 C 106.597656 10.953125 108.78125 11.398438 110.390625 11.65625 " fill-opacity="1" fill-rule="evenodd"/></g><path fill="#100f0d" d="M 120.09375 29.9375 L 120.09375 29.773438 C 120.265625 29.9375 120.265625 29.9375 120.265625 30.113281 Z M 91.589844 25.027344 L 91.589844 25.367188 L 90.914062 26.042969 C 91.078125 25.703125 91.429688 25.367188 91.589844 25.027344 Z M 118.738281 27.070312 L 118.738281 26.394531 L 118.914062 26.394531 C 119.089844 26.554688 119.089844 26.71875 119.253906 27.070312 Z M 120.78125 27.070312 C 120.78125 27.070312 120.605469 26.894531 120.605469 26.71875 C 119.925781 25.027344 118.738281 23.164062 117.386719 21.796875 L 117.226562 21.636719 C 117.128906 21.542969 117.050781 21.453125 116.972656 21.367188 L 114.238281 22.40625 L 113.980469 22.664062 L 114.15625 22.988281 L 114.492188 22.988281 L 114.65625 23.664062 L 115.34375 23.339844 L 115.519531 24.175781 L 115.183594 24.175781 L 114.65625 24.015625 L 114.15625 24.175781 L 113.480469 24.851562 L 112.789062 25.027344 L 112.628906 25.703125 L 112.964844 25.878906 L 112.789062 26.207031 L 112.113281 26.042969 L 111.277344 26.207031 L 111.277344 27.570312 L 111.789062 27.746094 L 112.964844 27.746094 L 113.140625 27.394531 L 113.816406 26.394531 L 114.332031 26.394531 L 114.832031 26.042969 L 115.007812 26.394531 L 116.195312 27.070312 L 116.023438 27.394531 L 115.519531 27.394531 L 115.683594 27.570312 L 116.023438 27.746094 L 116.359375 27.570312 L 116.359375 27.070312 L 116.699219 26.894531 L 116.535156 26.71875 L 115.683594 26.394531 L 115.519531 25.703125 L 116.023438 25.703125 L 116.359375 25.878906 L 116.875 26.554688 L 116.875 27.070312 L 117.550781 27.746094 L 117.726562 26.894531 L 118.226562 26.71875 L 118.226562 27.394531 L 118.738281 27.746094 L 119.414062 27.746094 C 119.589844 28.246094 119.753906 28.585938 119.925781 28.921875 L 119.925781 29.097656 L 118.578125 29.097656 L 117.886719 28.585938 L 117.050781 28.585938 L 117.050781 29.097656 L 116.875 29.097656 L 116.535156 28.921875 L 115.183594 28.585938 L 115.183594 27.746094 L 113.320312 27.746094 L 112.789062 28.070312 L 111.789062 28.070312 L 110.921875 28.585938 L 110.921875 29.421875 L 109.058594 30.613281 L 109.234375 31.128906 L 109.746094 31.128906 L 109.585938 31.640625 L 109.234375 31.800781 L 109.234375 33.15625 L 110.761719 34.859375 L 111.453125 34.859375 L 111.453125 34.695312 L 112.628906 34.695312 L 112.964844 34.34375 L 113.65625 34.34375 L 113.980469 34.695312 L 115.007812 34.859375 L 114.832031 36.210938 L 116.023438 38.078125 L 115.519531 39.265625 L 115.519531 39.78125 L 115.859375 40.117188 L 115.859375 41.46875 L 116.535156 42.324219 L 116.535156 43.320312 L 117.050781 43.320312 C 114.15625 46.890625 109.746094 49.09375 104.828125 49.09375 C 96.160156 49.09375 89.210938 42.144531 89.210938 33.507812 C 89.210938 31.289062 89.722656 29.097656 90.402344 27.230469 L 90.402344 28.246094 L 91.078125 28.585938 L 91.078125 29.773438 L 91.753906 30.789062 L 92.105469 30.964844 L 92.265625 30.453125 L 91.753906 29.613281 L 91.589844 28.761719 L 91.929688 28.761719 L 92.105469 29.613281 L 92.941406 30.964844 L 92.78125 31.289062 L 93.292969 32.15625 L 94.644531 32.480469 L 94.644531 32.316406 L 95.160156 32.316406 L 95.160156 32.65625 L 95.496094 32.832031 L 96.160156 32.992188 L 97.1875 34.019531 L 98.378906 34.183594 L 98.539062 35.195312 L 97.703125 35.695312 L 97.703125 36.546875 L 97.527344 37.046875 L 98.714844 38.589844 L 98.714844 39.105469 L 99.230469 39.105469 L 100.242188 39.941406 L 100.242188 42.484375 L 100.59375 42.644531 L 100.242188 43.835938 L 100.917969 44.6875 L 100.757812 45.878906 L 101.433594 47.054688 L 102.460938 47.90625 L 103.460938 48.082031 L 103.460938 47.742188 L 102.785156 47.054688 L 102.785156 46.890625 L 102.960938 46.378906 L 102.960938 46.039062 L 102.460938 46.039062 L 102.285156 45.703125 L 102.621094 45.363281 L 102.621094 45.1875 L 102.285156 45.027344 L 102.285156 44.863281 L 102.960938 44.6875 L 103.796875 44.1875 L 104.152344 43.671875 L 105.164062 42.484375 L 104.828125 41.292969 L 105.164062 40.96875 L 106.015625 40.96875 L 106.691406 40.457031 L 106.867188 38.589844 L 107.53125 37.738281 L 107.71875 37.046875 L 107.03125 36.886719 L 106.691406 36.210938 L 105.328125 36.210938 L 104.152344 35.886719 L 104.152344 35.019531 L 103.796875 34.519531 L 102.785156 34.519531 L 102.285156 33.507812 L 101.769531 33.332031 L 101.59375 33.507812 L 100.757812 33.507812 L 100.417969 33.15625 L 99.390625 32.992188 L 98.714844 33.832031 L 97.363281 33.667969 L 97.363281 32.316406 L 96.335938 32.15625 L 96.675781 31.289062 L 96.675781 30.964844 L 95.496094 31.800781 L 94.644531 31.640625 L 94.46875 31.128906 L 94.644531 30.453125 L 94.984375 29.773438 L 95.996094 29.261719 L 97.863281 29.261719 L 97.703125 29.773438 L 98.539062 30.113281 L 98.378906 29.097656 L 98.890625 28.761719 L 99.90625 28.070312 L 99.90625 27.570312 L 100.917969 26.554688 L 101.933594 26.042969 L 101.933594 25.878906 L 102.460938 25.367188 L 102.785156 25.367188 L 102.960938 25.53125 L 103.136719 25.207031 L 102.960938 25.207031 L 102.621094 25.027344 L 102.621094 24.691406 L 103.300781 24.691406 L 103.460938 25.027344 L 103.636719 25.027344 L 104.152344 24.851562 L 104.328125 24.691406 L 104.488281 24.691406 L 104.488281 25.027344 L 104.328125 25.207031 L 104.328125 25.53125 L 105.164062 25.703125 L 105.328125 25.703125 L 105.328125 25.367188 L 104.652344 25.027344 L 104.652344 24.851562 L 105.164062 24.527344 L 105.164062 24.015625 L 104.652344 23.664062 L 104.488281 22.824219 L 103.796875 23.164062 L 103.460938 23.164062 L 103.460938 22.488281 L 102.460938 22.148438 L 101.933594 22.488281 L 101.933594 23.664062 L 101.09375 23.851562 L 100.757812 24.527344 L 100.417969 24.691406 L 100.417969 23.664062 L 99.726562 23.664062 L 99.230469 23.339844 L 99.054688 22.824219 L 100.59375 21.988281 L 101.09375 21.796875 L 101.269531 22.148438 L 101.59375 22.148438 L 101.59375 21.988281 L 102.109375 21.988281 L 102.109375 21.796875 L 101.933594 21.796875 L 101.933594 21.472656 L 102.285156 21.472656 L 102.621094 21.136719 L 102.785156 21.136719 L 103.796875 20.960938 L 104.328125 21.296875 L 103.136719 21.988281 L 104.488281 22.3125 L 104.828125 21.796875 L 105.503906 21.796875 L 105.664062 21.296875 L 105.164062 21.296875 L 105.164062 20.796875 L 103.636719 20.121094 L 102.621094 20.121094 L 102.109375 20.445312 L 102.285156 21.136719 L 101.59375 21.136719 L 101.433594 20.796875 L 102.109375 20.121094 L 101.09375 20.121094 L 100.757812 20.285156 L 100.59375 20.621094 L 100.917969 20.621094 L 100.917969 20.960938 L 100.242188 20.960938 L 100.066406 21.296875 L 99.230469 21.296875 L 99.054688 20.796875 L 99.90625 20.796875 L 100.417969 20.285156 L 100.066406 20.121094 L 99.726562 20.445312 L 99.054688 20.445312 L 98.539062 19.769531 L 97.703125 19.769531 L 96.675781 20.621094 L 97.703125 20.621094 L 97.703125 20.796875 L 97.527344 20.960938 L 98.378906 20.960938 L 98.539062 21.296875 L 97.527344 21.296875 L 97.527344 21.136719 L 96.675781 20.960938 L 96.511719 20.796875 L 95.660156 20.796875 C 98.203125 18.769531 101.433594 17.742188 104.828125 17.742188 C 107.394531 17.742188 109.8125 18.402344 111.976562 19.382812 L 113.183594 18.5 C 112.042969 17.917969 110.84375 17.425781 109.582031 17.066406 C 109.082031 16.921875 108.574219 16.800781 108.058594 16.699219 C 107.015625 16.5 105.941406 16.390625 104.828125 16.390625 C 100.417969 16.390625 96.335938 18.078125 93.292969 20.960938 C 92.605469 21.472656 91.929688 22.148438 91.25 22.988281 C 89.050781 25.878906 87.695312 29.421875 87.695312 33.507812 C 87.695312 42.820312 95.320312 50.449219 104.828125 50.449219 C 111.453125 50.449219 117.226562 46.730469 120.09375 41.292969 C 120.605469 40.117188 121.117188 38.75 121.457031 37.402344 C 121.632812 37.046875 121.632812 36.726562 121.632812 36.386719 C 121.792969 35.535156 121.957031 34.519531 121.957031 33.507812 C 121.957031 33.332031 121.957031 33.332031 121.957031 33.332031 L 121.957031 31.800781 C 121.792969 30.113281 121.457031 28.585938 120.78125 27.070312 " fill-opacity="1" fill-rule="evenodd"/><g fill="#ff3131" fill-opacity="1"><g transform="translate(21.678322, 45.507689)"><g><path d="M 17.59375 0.578125 C 12.851562 0.578125 9.046875 -0.785156 6.171875 -3.515625 C 3.304688 -6.242188 1.875 -9.929688 1.875 -14.578125 C 1.875 -19.222656 3.304688 -22.90625 6.171875 -25.625 C 9.046875 -28.34375 12.9375 -29.703125 17.84375 -29.703125 C 20.0625 -29.703125 22.210938 -29.488281 24.296875 -29.0625 C 26.378906 -28.632812 28.054688 -28.101562 29.328125 -27.46875 L 29.421875 -20.3125 L 29.046875 -20.3125 C 28.328125 -23 27.09375 -24.945312 25.34375 -26.15625 C 23.59375 -27.363281 21.507812 -27.96875 19.09375 -27.96875 C 15.738281 -27.96875 13.160156 -26.765625 11.359375 -24.359375 C 9.554688 -21.960938 8.65625 -18.675781 8.65625 -14.5 C 8.65625 -10.320312 9.476562 -7.054688 11.125 -4.703125 C 12.78125 -2.347656 15.117188 -1.171875 18.140625 -1.171875 C 20.328125 -1.171875 22.160156 -1.789062 23.640625 -3.03125 C 24.359375 -3.675781 24.882812 -4.425781 25.21875 -5.28125 L 25.21875 -11.65625 C 25.21875 -12.257812 25.03125 -12.71875 24.65625 -13.03125 C 24.28125 -13.351562 23.742188 -13.515625 23.046875 -13.515625 L 22.390625 -13.515625 L 22.390625 -13.9375 L 34.078125 -13.9375 L 34.078125 -13.515625 L 33.453125 -13.515625 C 32.785156 -13.515625 32.269531 -13.351562 31.90625 -13.03125 C 31.550781 -12.71875 31.375 -12.257812 31.375 -11.65625 L 31.375 -4.78125 C 30.289062 -3.363281 28.5 -2.113281 26 -1.03125 C 23.507812 0.0390625 20.707031 0.578125 17.59375 0.578125 Z M 17.59375 0.578125 "/></g></g></g><g fill="#ff3131" fill-opacity="1"><g transform="translate(56.465203, 45.507689)"><g><path d="M 2.28125 -0.421875 C 3.007812 -0.421875 3.628906 -0.675781 4.140625 -1.1875 C 4.648438 -1.695312 4.921875 -2.3125 4.953125 -3.03125 L 4.953125 -26.09375 C 4.921875 -26.8125 4.648438 -27.425781 4.140625 -27.9375 C 3.628906 -28.445312 3.007812 -28.703125 2.28125 -28.703125 L 1.75 -28.703125 L 1.75 -29.125 L 14.390625 -29.125 L 14.359375 -28.703125 L 13.859375 -28.703125 C 13.140625 -28.703125 12.515625 -28.445312 11.984375 -27.9375 C 11.453125 -27.425781 11.1875 -26.8125 11.1875 -26.09375 L 11.1875 -1.796875 L 16.640625 -1.796875 C 18.671875 -1.796875 20.367188 -2.375 21.734375 -3.53125 C 23.109375 -4.695312 24.128906 -6.347656 24.796875 -8.484375 L 25.21875 -8.484375 L 23.296875 0 L 1.75 0 L 1.75 -0.421875 Z M 2.28125 -0.421875 "/></g></g></g><g fill="#ff3131" fill-opacity="1"><g transform="translate(82.098021, 45.507689)"><g/></g><g transform="translate(92.500798, 45.507689)"><g/></g><g transform="translate(102.903575, 45.507689)"><g/></g><g transform="translate(113.306352, 45.507689)"><g/></g></g><g fill="#ff3131" fill-opacity="1"><g transform="translate(123.709128, 45.507689)"><g><path d="M 13.234375 -27.296875 L 11.4375 -27.296875 C 11.382812 -27.296875 11.34375 -27.296875 11.3125 -27.296875 L 11.3125 -3.03125 C 11.34375 -2.3125 11.613281 -1.695312 12.125 -1.1875 C 12.644531 -0.675781 13.265625 -0.421875 13.984375 -0.421875 L 14.515625 -0.421875 L 14.515625 0 L 1.875 0 L 1.875 -0.421875 L 2.40625 -0.421875 C 3.40625 -0.421875 4.171875 -0.847656 4.703125 -1.703125 C 4.921875 -2.085938 5.046875 -2.519531 5.078125 -3 L 5.078125 -26.09375 C 5.046875 -26.8125 4.773438 -27.425781 4.265625 -27.9375 C 3.753906 -28.445312 3.132812 -28.703125 2.40625 -28.703125 L 1.875 -28.703125 L 1.875 -29.125 L 16.140625 -29.125 C 18.835938 -29.125 21.113281 -28.539062 22.96875 -27.375 C 23.914062 -26.789062 24.664062 -25.976562 25.21875 -24.9375 C 25.769531 -23.90625 26.046875 -22.546875 26.046875 -20.859375 C 26.046875 -19.179688 25.460938 -17.566406 24.296875 -16.015625 C 23.128906 -14.460938 21.4375 -13.578125 19.21875 -13.359375 C 20.832031 -12.828125 22.25 -11.601562 23.46875 -9.6875 C 26.46875 -4.894531 28.6875 -2.039062 30.125 -1.125 C 30.84375 -0.675781 31.742188 -0.441406 32.828125 -0.421875 L 32.828125 0 L 28.75 0 C 26.332031 0 24.328125 -0.316406 22.734375 -0.953125 C 21.140625 -1.585938 19.882812 -2.710938 18.96875 -4.328125 C 18.445312 -5.242188 17.296875 -7.613281 15.515625 -11.4375 C 14.742188 -13.132812 13.800781 -14.066406 12.6875 -14.234375 L 12.6875 -14.640625 L 13.984375 -14.640625 C 15.234375 -14.640625 16.332031 -15.015625 17.28125 -15.765625 C 18.238281 -16.515625 18.882812 -17.738281 19.21875 -19.4375 C 19.332031 -20.019531 19.390625 -20.472656 19.390625 -20.796875 C 19.390625 -23.078125 18.929688 -24.722656 18.015625 -25.734375 C 17.097656 -26.742188 15.921875 -27.265625 14.484375 -27.296875 C 14.203125 -27.296875 13.785156 -27.296875 13.234375 -27.296875 Z M 13.234375 -27.296875 "/></g></g><g transform="translate(154.792626, 45.507689)"><g><path d="M 2.28125 -0.421875 C 3.007812 -0.421875 3.628906 -0.675781 4.140625 -1.1875 C 4.648438 -1.695312 4.921875 -2.3125 4.953125 -3.03125 L 4.953125 -26.125 C 4.921875 -26.851562 4.648438 -27.460938 4.140625 -27.953125 C 3.628906 -28.453125 3.007812 -28.703125 2.28125 -28.703125 L 1.75 -28.703125 L 1.75 -29.125 L 14.390625 -29.125 L 14.359375 -28.703125 L 13.859375 -28.703125 C 13.140625 -28.703125 12.515625 -28.453125 11.984375 -27.953125 C 11.453125 -27.460938 11.1875 -26.851562 11.1875 -26.125 L 11.1875 -3.03125 C 11.1875 -2.3125 11.453125 -1.695312 11.984375 -1.1875 C 12.515625 -0.675781 13.140625 -0.421875 13.859375 -0.421875 L 14.359375 -0.421875 L 14.390625 0 L 1.75 0 L 1.75 -0.421875 Z M 2.28125 -0.421875 "/></g></g></g><g fill="#ff3131" fill-opacity="1"><g transform="translate(170.854512, 45.507689)"><g><path d="M 30.71875 -0.421875 L 31.09375 -0.421875 L 31.09375 0 L 17.8125 0 L 17.8125 -0.421875 L 18.1875 -0.421875 C 18.800781 -0.421875 19.253906 -0.609375 19.546875 -0.984375 C 19.835938 -1.359375 19.984375 -1.707031 19.984375 -2.03125 C 19.984375 -2.363281 19.910156 -2.695312 19.765625 -3.03125 L 17.734375 -8.15625 L 8 -8.15625 L 5.828125 -3.03125 C 5.691406 -2.675781 5.625 -2.335938 5.625 -2.015625 C 5.625 -1.703125 5.773438 -1.359375 6.078125 -0.984375 C 6.378906 -0.609375 6.835938 -0.421875 7.453125 -0.421875 L 7.78125 -0.421875 L 7.78125 0 L -1.125 0 L -1.125 -0.421875 L -0.75 -0.421875 C -0.101562 -0.421875 0.535156 -0.613281 1.171875 -1 C 1.804688 -1.382812 2.332031 -1.96875 2.75 -2.75 L 12.359375 -24.515625 C 13.660156 -27.253906 14.351562 -29.066406 14.4375 -29.953125 L 14.8125 -29.953125 L 27.171875 -2.828125 C 27.585938 -2.023438 28.113281 -1.421875 28.75 -1.015625 C 29.394531 -0.617188 30.050781 -0.421875 30.71875 -0.421875 Z M 8.703125 -9.90625 L 17.03125 -9.90625 L 12.984375 -20.140625 Z M 8.703125 -9.90625 "/></g></g></g><g fill="#000000" fill-opacity="1"><g transform="translate(69.089146, 70.424812)"><g><path d="M 0.40625 -8.90625 L 0.40625 -9.984375 C 0.40625 -10.179688 0.503906 -10.28125 0.703125 -10.28125 L 7.734375 -10.28125 C 7.828125 -10.28125 7.898438 -10.25 7.953125 -10.1875 C 8.003906 -10.132812 8.03125 -10.066406 8.03125 -9.984375 L 8.03125 -8.90625 C 8.03125 -8.707031 7.929688 -8.609375 7.734375 -8.609375 L 5.15625 -8.609375 L 5.15625 -0.296875 C 5.15625 -0.0976562 5.054688 0 4.859375 0 L 3.546875 0 C 3.347656 0 3.25 -0.0976562 3.25 -0.296875 L 3.25 -8.609375 L 0.703125 -8.609375 C 0.609375 -8.609375 0.535156 -8.632812 0.484375 -8.6875 C 0.429688 -8.738281 0.40625 -8.8125 0.40625 -8.90625 Z M 0.40625 -8.90625 "/></g></g></g><g fill="#000000" fill-opacity="1"><g transform="translate(78.910187, 70.424812)"><g><path d="M 9.953125 -0.328125 C 9.992188 -0.234375 9.992188 -0.148438 9.953125 -0.078125 C 9.921875 -0.015625 9.847656 0.015625 9.734375 0.015625 L 8.28125 0.015625 C 8.195312 0.015625 8.125 -0.0078125 8.0625 -0.0625 C 8.007812 -0.113281 7.96875 -0.175781 7.9375 -0.25 L 7.515625 -1.25 L 2.796875 -1.25 L 2.375 -0.25 C 2.34375 -0.1875 2.296875 -0.128906 2.234375 -0.078125 C 2.179688 -0.0234375 2.113281 0 2.03125 0 L 0.578125 0 C 0.460938 0 0.382812 -0.03125 0.34375 -0.09375 C 0.300781 -0.15625 0.304688 -0.238281 0.359375 -0.34375 L 4.734375 -10.15625 C 4.765625 -10.226562 4.816406 -10.289062 4.890625 -10.34375 C 4.960938 -10.394531 5.035156 -10.421875 5.109375 -10.421875 L 5.1875 -10.421875 C 5.269531 -10.421875 5.34375 -10.394531 5.40625 -10.34375 C 5.476562 -10.289062 5.53125 -10.222656 5.5625 -10.140625 Z M 3.46875 -2.890625 L 6.84375 -2.890625 L 5.15625 -6.984375 Z M 3.46875 -2.890625 "/></g></g></g><g fill="#000000" fill-opacity="1"><g transform="translate(90.606203, 70.424812)"><g><path d="M 10.15625 -10.296875 C 10.300781 -10.296875 10.375 -10.21875 10.375 -10.0625 L 10.375 -0.1875 C 10.375 -0.0820312 10.347656 -0.00390625 10.296875 0.046875 C 10.242188 0.109375 10.179688 0.140625 10.109375 0.140625 C 10.015625 0.140625 9.9375 0.113281 9.875 0.0625 C 9.820312 0.0078125 9.757812 -0.046875 9.6875 -0.109375 L 3.140625 -6.328125 L 3.140625 -0.21875 C 3.140625 -0.0703125 3.066406 0 2.921875 0 L 1.453125 0 C 1.296875 0 1.21875 -0.0703125 1.21875 -0.21875 L 1.21875 -10.109375 C 1.21875 -10.203125 1.238281 -10.273438 1.28125 -10.328125 C 1.332031 -10.390625 1.394531 -10.421875 1.46875 -10.421875 L 1.5 -10.421875 C 1.570312 -10.421875 1.632812 -10.394531 1.6875 -10.34375 C 1.738281 -10.289062 1.800781 -10.234375 1.875 -10.171875 L 8.46875 -3.9375 L 8.46875 -10.0625 C 8.46875 -10.21875 8.546875 -10.296875 8.703125 -10.296875 Z M 10.15625 -10.296875 "/></g></g></g><g fill="#000000" fill-opacity="1"><g transform="translate(103.601841, 70.424812)"><g/></g></g><g fill="#000000" fill-opacity="1"><g transform="translate(109.348026, 70.424812)"><g><path d="M 4.5 -10.28125 C 5.15625 -10.28125 5.753906 -10.175781 6.296875 -9.96875 C 6.847656 -9.769531 7.328125 -9.488281 7.734375 -9.125 C 8.140625 -8.757812 8.453125 -8.328125 8.671875 -7.828125 C 8.898438 -7.335938 9.015625 -6.796875 9.015625 -6.203125 C 9.015625 -5.609375 8.898438 -5.066406 8.671875 -4.578125 C 8.453125 -4.085938 8.140625 -3.660156 7.734375 -3.296875 C 7.328125 -2.941406 6.847656 -2.664062 6.296875 -2.46875 C 5.753906 -2.269531 5.15625 -2.171875 4.5 -2.171875 L 3.140625 -2.171875 L 3.140625 -0.296875 C 3.140625 -0.203125 3.113281 -0.128906 3.0625 -0.078125 C 3.007812 -0.0234375 2.929688 0 2.828125 0 L 1.53125 0 C 1.4375 0 1.359375 -0.0234375 1.296875 -0.078125 C 1.242188 -0.128906 1.21875 -0.203125 1.21875 -0.296875 L 1.21875 -9.984375 C 1.21875 -10.066406 1.242188 -10.132812 1.296875 -10.1875 C 1.359375 -10.25 1.4375 -10.28125 1.53125 -10.28125 L 2.21875 -10.28125 C 2.363281 -10.28125 2.492188 -10.28125 2.609375 -10.28125 C 2.722656 -10.28125 2.804688 -10.28125 2.859375 -10.28125 Z M 4.359375 -3.84375 C 4.765625 -3.84375 5.132812 -3.898438 5.46875 -4.015625 C 5.800781 -4.128906 6.085938 -4.289062 6.328125 -4.5 C 6.578125 -4.71875 6.769531 -4.96875 6.90625 -5.25 C 7.039062 -5.539062 7.109375 -5.863281 7.109375 -6.21875 C 7.109375 -6.5625 7.039062 -6.878906 6.90625 -7.171875 C 6.769531 -7.460938 6.578125 -7.710938 6.328125 -7.921875 C 6.085938 -8.140625 5.800781 -8.304688 5.46875 -8.421875 C 5.132812 -8.535156 4.765625 -8.59375 4.359375 -8.59375 L 3.140625 -8.59375 L 3.140625 -3.84375 Z M 4.359375 -3.84375 "/></g></g></g><g fill="#000000" fill-opacity="1"><g transform="translate(120.340082, 70.424812)"><g><path d="M 9.9375 -10.296875 C 10.09375 -10.296875 10.171875 -10.21875 10.171875 -10.0625 L 10.171875 -0.21875 C 10.171875 -0.0703125 10.09375 0 9.9375 0 L 8.46875 0 C 8.320312 0 8.25 -0.0703125 8.25 -0.21875 L 8.25 -3.265625 L 3.140625 -3.265625 L 3.140625 -0.21875 C 3.140625 -0.0703125 3.066406 0 2.921875 0 L 1.453125 0 C 1.296875 0 1.21875 -0.0703125 1.21875 -0.21875 L 1.21875 -10.0625 C 1.21875 -10.21875 1.296875 -10.296875 1.453125 -10.296875 L 2.921875 -10.296875 C 3.066406 -10.296875 3.140625 -10.21875 3.140625 -10.0625 L 3.140625 -4.953125 L 8.25 -4.953125 L 8.25 -10.0625 C 8.25 -10.21875 8.320312 -10.296875 8.46875 -10.296875 Z M 9.9375 -10.296875 "/></g></g></g><g fill="#000000" fill-opacity="1"><g transform="translate(133.119115, 70.424812)"><g><path d="M 9.953125 -0.328125 C 9.992188 -0.234375 9.992188 -0.148438 9.953125 -0.078125 C 9.921875 -0.015625 9.847656 0.015625 9.734375 0.015625 L 8.28125 0.015625 C 8.195312 0.015625 8.125 -0.0078125 8.0625 -0.0625 C 8.007812 -0.113281 7.96875 -0.175781 7.9375 -0.25 L 7.515625 -1.25 L 2.796875 -1.25 L 2.375 -0.25 C 2.34375 -0.1875 2.296875 -0.128906 2.234375 -0.078125 C 2.179688 -0.0234375 2.113281 0 2.03125 0 L 0.578125 0 C 0.460938 0 0.382812 -0.03125 0.34375 -0.09375 C 0.300781 -0.15625 0.304688 -0.238281 0.359375 -0.34375 L 4.734375 -10.15625 C 4.765625 -10.226562 4.816406 -10.289062 4.890625 -10.34375 C 4.960938 -10.394531 5.035156 -10.421875 5.109375 -10.421875 L 5.1875 -10.421875 C 5.269531 -10.421875 5.34375 -10.394531 5.40625 -10.34375 C 5.476562 -10.289062 5.53125 -10.222656 5.5625 -10.140625 Z M 3.46875 -2.890625 L 6.84375 -2.890625 L 5.15625 -6.984375 Z M 3.46875 -2.890625 "/></g></g></g><g fill="#000000" fill-opacity="1"><g transform="translate(144.81513, 70.424812)"><g><path d="M 0.40625 -8.90625 L 0.40625 -9.984375 C 0.40625 -10.179688 0.503906 -10.28125 0.703125 -10.28125 L 7.734375 -10.28125 C 7.828125 -10.28125 7.898438 -10.25 7.953125 -10.1875 C 8.003906 -10.132812 8.03125 -10.066406 8.03125 -9.984375 L 8.03125 -8.90625 C 8.03125 -8.707031 7.929688 -8.609375 7.734375 -8.609375 L 5.15625 -8.609375 L 5.15625 -0.296875 C 5.15625 -0.0976562 5.054688 0 4.859375 0 L 3.546875 0 C 3.347656 0 3.25 -0.0976562 3.25 -0.296875 L 3.25 -8.609375 L 0.703125 -8.609375 C 0.609375 -8.609375 0.535156 -8.632812 0.484375 -8.6875 C 0.429688 -8.738281 0.40625 -8.8125 0.40625 -8.90625 Z M 0.40625 -8.90625 "/></g></g></g></svg>